<?xml version="1.0" encoding="UTF-8" standalone="no"?>
<!DOCTYPE svg PUBLIC "-//W3C//DTD SVG 1.1//EN" "http://www.w3.org/Graphics/SVG/1.1/DTD/svg11.dtd">
<svg data-noselect="" viewBox="195.2612533098 106.847969991175 477.7387466902 358.30406001765004" width="477.7387466902" ref="svg_canvas" height="358.30406001765004" preserveAspectRatio="none" version="1.1" xmlns="http://www.w3.org/2000/svg" style="background: #ffffff;">
    <def/>
    <g id="shape_LQsdHj1D4W" ref="shape_LQsdHj1D4W" key="shape_LQsdHj1D4W" transform="translate(275.2612533098,226) rotate(0,54.238746690203,60) scale(1,1)" style="cursor:move;display:inline;opacity:1;" filter="">
            <g style="display:inline"><rect fill="rgba(0,0,0,0)" width="128.47749338040603" height="140" x="-10" y="-10"/><svg version="1.1" id="图层_1" xmlns="http://www.w3.org/2000/svg" xmlns:xlink="http://www.w3.org/1999/xlink" x="0px" y="0px" viewBox="0 0 97.7 113.3" style="enable-background:new 0 0 97.7 113.3;" xml:space="preserve" width="108.47749338040602" height="120" class="style-removed" preserveAspectRatio="none" data-parent="shape_LQsdHj1D4W">

<g>
	<g>
		<path d="M66.8,112.6c-0.3,0-0.5-0.1-0.7-0.3L1.2,61.2c-0.3-0.2-0.5-0.6-0.5-0.9c0-0.4,0.2-0.7,0.4-0.9L75.7,0.3    c0.5-0.4,1.3-0.3,1.7,0.2c0.4,0.5,0.3,1.3-0.2,1.7L3.8,60.3l63.7,50.3c0.5,0.4,0.6,1.2,0.2,1.7C67.5,112.5,67.1,112.6,66.8,112.6z    " fill="#0EA3F0" stroke-width="0"/>
	</g>
	<g>
		<path d="M28.1,102.2c-0.3,0-0.5-0.1-0.7-0.3c-0.3-0.2-0.4-0.5-0.4-0.8l-8.3-90.4c0-0.4,0.1-0.7,0.4-1    c0.3-0.3,0.7-0.3,1-0.3L96.8,26c0.6,0.1,1,0.8,0.9,1.4c-0.1,0.6-0.8,1-1.4,0.9L21.2,12l8,87.6L96.4,91c0.7-0.1,1.2,0.4,1.3,1    c0.1,0.6-0.4,1.2-1,1.3l-68.4,8.8C28.2,102.1,28.2,102.2,28.1,102.2z" fill="#38B8D6" stroke-width="0"/>
	</g>
	<g>
		<path d="M65.9,113.3c-0.1,0-0.2,0-0.3,0L27.3,103c-0.3-0.1-0.5-0.3-0.7-0.5L0.2,60.7c-0.2-0.3-0.2-0.7-0.1-1l18-50.4    c0.1-0.4,0.5-0.7,0.9-0.8L76.3,0c0.4-0.1,0.9,0.1,1.1,0.4l20.1,26c0.4,0.5,0.3,1.3-0.2,1.7c-0.5,0.4-1.3,0.3-1.7-0.2L75.9,2.5    L20,10.7L2.5,59.9l25.9,40.9l37.4,9.9l30.1-19.7c0.5-0.4,1.3-0.2,1.6,0.3c0.4,0.5,0.2,1.3-0.3,1.6l-30.6,20    C66.4,113.2,66.2,113.3,65.9,113.3z" fill="#1157AF" stroke-width="0"/>
	</g>
</g>
</svg></g>
        </g><g id="shape_DGLWGF3GID" ref="shape_DGLWGF3GID" key="shape_DGLWGF3GID" transform="translate(280.18,106.23753835225) rotate(0,149.52560184506,175.60728625003) scale(1,1)" style="cursor:move;display:inline;opacity:1;" filter="">
            <g style="display:inline"><svg xmlns="http://www.w3.org/2000/svg" version="1.1" xmlns:xlink="http://www.w3.org/1999/xlink" width="459.28" height="350.92" viewBox="0 0 459.28 350.92" preserveAspectRatio="none" data-parent="shape_DGLWGF3GID"><rect fill="rgba(0,0,0,0)" width="264" height="58" x="48.82" y="146.46"/><g data-width="263.04216" transform="translate(48.82, 0)"><path d="M3.17-32.56L13.28-32.56L21.38-7.13L29.93-32.56L40.03-32.56L40.03 0L33.44 0L33.44-24.41L24.95 0L17.82 0L9.76-24.41L9.76 0L3.17 0L3.17-32.56Z" transform="translate(0 192.46) " fill="rgb(56, 56, 154)" stroke="rgb(56, 56, 154)" stroke-width="0.081" data-glyph-w="43.400980000000004" data-glyph-h="48.82" data-glyph-ascender="41.93638" data-glyph-descender="-6.8836200000000005"/><path d="M12.16 0L12.16-14.26L0.10-32.56L8.20-32.56L15.67-19.82L23.53-32.56L31.78-32.56L19.09-14.01L19.09 0L12.16 0Z" transform="translate(43.400980000000004 192.46) " fill="rgb(56, 56, 154)" stroke="rgb(56, 56, 154)" stroke-width="0.081" data-glyph-w="31.87946" data-glyph-h="48.82" data-glyph-ascender="41.93638" data-glyph-descender="-6.8836200000000005"/><path d="M18.11-5.81L28.07-5.81L28.07 0L16.70 0Q13.47 0 11.77-0.34L11.77-0.34Q5.76-1.51 3.22-7.03L3.22-7.03Q1.56-10.74 1.56-16.21L1.56-16.21Q1.56-22.75 4.10-26.85L4.10-26.85Q5.96-29.83 9.06-31.20Q12.16-32.56 17.04-32.56L17.04-32.56L28.07-32.56L28.07-26.75L17.82-26.75Q13.18-26.75 11.03-24.26L11.03-24.26Q9.23-22.21 9.23-16.84L9.23-16.84Q9.23-9.62 12.01-7.37L12.01-7.37Q13.96-5.81 18.11-5.81L18.11-5.81Z" transform="translate(75.28044 192.46) " fill="rgb(56, 56, 154)" stroke="rgb(56, 56, 154)" stroke-width="0.081" data-glyph-w="29.58492" data-glyph-h="48.82" data-glyph-ascender="41.93638" data-glyph-descender="-6.8836200000000005"/><path d="M16.06-32.56L27.73-32.56L27.73-26.75L18.70-26.75Q15.18-26.75 13.57-26.27Q11.96-25.78 10.89-24.36L10.89-24.36Q10.15-23.38 9.89-22.41Q9.62-21.43 9.42-19.09L9.42-19.09L27.73-19.09L27.73-13.28L9.42-13.28Q9.81-9.08 11.91-7.45Q14.01-5.81 19.04-5.81L19.04-5.81L27.73-5.81L27.73 0L18.70 0Q15.04 0 12.25-0.44L12.25-0.44Q7.86-1.17 5.27-4.30L5.27-4.30Q1.56-8.79 1.56-16.45L1.56-16.45Q1.56-24.95 6.79-29.68L6.79-29.68Q8.59-31.29 10.62-31.93Q12.64-32.56 16.06-32.56L16.06-32.56Z" transform="translate(104.86536 192.46) " fill="rgb(56, 56, 154)" stroke="rgb(56, 56, 154)" stroke-width="0.081" data-glyph-w="29.877840000000003" data-glyph-h="48.82" data-glyph-ascender="41.93638" data-glyph-descender="-6.8836200000000005"/><path d="M23.24 0L9.96-23.87L9.96 0L3.32 0L3.32-32.56L12.21-32.56L25.14-8.30L25.14-32.56L31.73-32.56L31.73 0L23.24 0Z" transform="translate(134.7432 192.46) " fill="rgb(56, 56, 154)" stroke="rgb(56, 56, 154)" stroke-width="0.081" data-glyph-w="35.05276" data-glyph-h="48.82" data-glyph-ascender="41.93638" data-glyph-descender="-6.8836200000000005"/><path d="M10.55 0L10.55-26.75L0.20-26.75L0.20-32.56L28.27-32.56L28.27-26.75L17.48-26.75L17.48 0L10.55 0Z" transform="translate(169.79596 192.46) " fill="rgb(56, 56, 154)" stroke="rgb(56, 56, 154)" stroke-width="0.081" data-glyph-w="28.51088" data-glyph-h="48.82" data-glyph-ascender="41.93638" data-glyph-descender="-6.8836200000000005"/><path d="M16.06-32.56L27.73-32.56L27.73-26.75L18.70-26.75Q15.18-26.75 13.57-26.27Q11.96-25.78 10.89-24.36L10.89-24.36Q10.15-23.38 9.89-22.41Q9.62-21.43 9.42-19.09L9.42-19.09L27.73-19.09L27.73-13.28L9.42-13.28Q9.81-9.08 11.91-7.45Q14.01-5.81 19.04-5.81L19.04-5.81L27.73-5.81L27.73 0L18.70 0Q15.04 0 12.25-0.44L12.25-0.44Q7.86-1.17 5.27-4.30L5.27-4.30Q1.56-8.79 1.56-16.45L1.56-16.45Q1.56-24.95 6.79-29.68L6.79-29.68Q8.59-31.29 10.62-31.93Q12.64-32.56 16.06-32.56L16.06-32.56Z" transform="translate(198.30684000000002 192.46) " fill="rgb(56, 56, 154)" stroke="rgb(56, 56, 154)" stroke-width="0.081" data-glyph-w="29.877840000000003" data-glyph-h="48.82" data-glyph-ascender="41.93638" data-glyph-descender="-6.8836200000000005"/><path d="M15.82-12.35L10.25-12.35L10.25 0L3.32 0L3.32-32.56L19.24-32.56Q26.07-32.56 28.75-30.81L28.75-30.81Q30.61-29.63 31.61-27.71Q32.61-25.78 32.61-23.48L32.61-23.48Q32.61-18.84 30.27-16.31L30.27-16.31Q28.80-14.79 26.41-14.01L26.41-14.01Q28.32-13.33 29.29-12.57Q30.27-11.81 31.05-10.35L31.05-10.35Q31.64-9.18 31.90-8.10Q32.17-7.03 32.32-4.93L32.32-4.93Q32.61-1.42 33.10 0L33.10 0L25.34 0Q25.00-1.12 24.61-4.64L24.61-4.64Q24.36-7.47 23.60-8.98Q22.85-10.50 21.33-11.38L21.33-11.38Q19.43-12.40 15.82-12.35L15.82-12.35ZM10.25-26.75L10.25-18.16L19.97-18.16Q22.41-18.16 23.43-18.89L23.43-18.89Q25.00-19.97 25.00-22.65L25.00-22.65Q25.00-25.63 22.65-26.46L22.65-26.46Q21.82-26.75 19.97-26.75L19.97-26.75L10.25-26.75Z" transform="translate(228.18468000000001 192.46) " fill="rgb(56, 56, 154)" stroke="rgb(56, 56, 154)" stroke-width="0.081" data-glyph-w="34.85748" data-glyph-h="48.82" data-glyph-ascender="41.93638" data-glyph-descender="-6.8836200000000005"/></g></svg></g>
        </g>
  </svg>